<svg width="17" height="17" viewBox="0 0 17 17" fill="none" xmlns="http://www.w3.org/2000/svg">
<path d="M8.49927 4.6748C7.52772 4.6748 6.7373 5.46522 6.7373 6.43677C6.7373 7.40832 7.52772 8.19874 8.49927 8.19874C9.47082 8.19874 10.2612 7.40832 10.2612 6.43677C10.2612 5.46522 9.47086 4.6748 8.49927 4.6748Z" fill="white"/>
<path d="M8.49956 0C4.90225 0 1.97559 2.92663 1.97559 6.52394C1.97559 8.04823 2.50108 9.45197 3.38038 10.5638L8.49956 17L13.6187 10.5638C14.498 9.45197 15.0235 8.04823 15.0235 6.52394C15.0235 2.92663 12.0969 0 8.49956 0ZM8.49956 9.37354C6.88031 9.37354 5.56295 8.05618 5.56295 6.43693C5.56295 4.81769 6.88031 3.50032 8.49956 3.50032C10.1188 3.50032 11.4362 4.81769 11.4362 6.43693C11.4362 8.05618 10.1188 9.37354 8.49956 9.37354Z" fill="white"/>
</svg>
