<svg width="15" height="15" viewBox="0 0 15 15" fill="none" xmlns="http://www.w3.org/2000/svg">
<g clip-path="url(#clip0)">
<path d="M14.613 11.0676L12.7488 9.20296C12.2514 8.70556 11.3823 8.70471 10.8841 9.20296L10.5732 9.51383L14.3023 13.2426L14.613 12.9319C15.1292 12.4157 15.1275 11.5812 14.613 11.0676Z" fill="white"/>
<path d="M9.93501 10.1184C9.54273 10.4223 8.9831 10.4102 8.62465 10.051L4.93862 6.36239C4.57935 6.00313 4.56725 5.44309 4.87115 5.05177L1.15071 1.33154C-0.4498 3.19716 -0.387222 6.00828 1.37923 7.77473L7.21231 13.6104C8.90743 15.3054 11.684 15.5302 13.6556 13.8388L9.93501 10.1184Z" fill="white"/>
<path d="M5.78586 2.23802L3.92162 0.37337C3.42422 -0.124032 2.55518 -0.124881 2.05696 0.37337L1.74609 0.684238L5.47511 4.41305L5.78586 4.10227C6.30201 3.58612 6.30031 2.75163 5.78586 2.23802Z" fill="white"/>
</g>
<defs>
<clipPath id="clip0">
<rect width="15" height="15" fill="white"/>
</clipPath>
</defs>
</svg>
