<svg width="10" height="14" viewBox="0 0 10 14" fill="none" xmlns="http://www.w3.org/2000/svg">
<path d="M1.11074 6.45372L7.34092 0.223657C7.48502 0.0794465 7.67737 0 7.88248 0C8.08758 0 8.27994 0.0794465 8.42403 0.223657L8.88284 0.682352C9.18139 0.981244 9.18139 1.46703 8.88284 1.76547L3.65121 6.9971L8.88865 12.2345C9.03274 12.3787 9.1123 12.571 9.1123 12.776C9.1123 12.9812 9.03274 13.1734 8.88865 13.3178L8.42984 13.7763C8.28563 13.9206 8.09339 14 7.88828 14C7.68318 14 7.49082 13.9206 7.34673 13.7763L1.11074 7.54059C0.966305 7.39592 0.886972 7.20277 0.887428 6.99744C0.886972 6.79131 0.966305 6.59827 1.11074 6.45372Z" fill="white"/>
</svg>
