<svg width="45" height="45" viewBox="0 0 45 45" fill="none" xmlns="http://www.w3.org/2000/svg">
<path fill-rule="evenodd" clip-rule="evenodd" d="M22.9544 41.2848C33.0796 41.2848 41.2878 33.0766 41.2878 22.9515C41.2878 12.8263 33.0796 4.61816 22.9544 4.61816C12.8292 4.61816 4.62109 12.8263 4.62109 22.9515C4.62109 33.0766 12.8292 41.2848 22.9544 41.2848ZM21.1211 15.6182C21.1211 14.6057 21.9419 13.7848 22.9544 13.7848C23.967 13.7848 24.7878 14.6057 24.7878 15.6182V22.9515C24.7878 23.964 23.967 24.7848 22.9544 24.7848C21.9419 24.7848 21.1211 23.964 21.1211 22.9515V15.6182ZM24.7878 30.2848C24.7878 31.2974 23.967 32.1182 22.9544 32.1182C21.9419 32.1182 21.1211 31.2974 21.1211 30.2848C21.1211 29.2723 21.9419 28.4515 22.9544 28.4515C23.967 28.4515 24.7878 29.2723 24.7878 30.2848Z" fill="#118A0F"/>
</svg>
