<svg width="30" height="30" viewBox="0 0 30 30" fill="none" xmlns="http://www.w3.org/2000/svg">
<rect width="30" height="30" rx="5" fill="#333333"/>
<path d="M17.606 15.0821L23 18.4921V11.5281L17.606 15.0821Z" fill="white"/>
<path d="M7 11.5281V18.4921L12.394 15.0821L7 11.5281Z" fill="white"/>
<path d="M22 9.5H8.00003C7.50103 9.5 7.10503 9.872 7.03003 10.351L15 15.602L22.97 10.351C22.895 9.872 22.499 9.5 22 9.5Z" fill="white"/>
<path d="M16.69 15.6861L15.275 16.6181C15.191 16.6731 15.096 16.7001 15 16.7001C14.904 16.7001 14.809 16.6731 14.725 16.6181L13.31 15.6851L7.03198 19.6561C7.10898 20.1311 7.50298 20.5001 7.99998 20.5001H22C22.497 20.5001 22.891 20.1311 22.968 19.6561L16.69 15.6861Z" fill="white"/>
</svg>
