<svg width="30" height="30" viewBox="0 0 30 30" fill="none" xmlns="http://www.w3.org/2000/svg">
<rect width="30" height="30" rx="5" fill="white"/>
<g clip-path="url(#clip0)">
<path d="M22.5877 18.8057L20.5991 16.8167C20.0686 16.2862 19.1416 16.2853 18.6102 16.8167L18.2786 17.1483L22.2562 21.1257L22.5877 20.7942C23.1383 20.2436 23.1364 19.3535 22.5877 18.8057Z" fill="#333333"/>
<path d="M17.5973 17.7929C17.1789 18.117 16.582 18.1041 16.1996 17.7209L12.2679 13.7864C11.8846 13.4032 11.8717 12.8058 12.1959 12.3884L8.22743 8.42017C6.52021 10.4102 6.58696 13.4087 8.47118 15.2929L14.6931 21.5176C16.5013 23.3256 19.463 23.5654 21.566 21.7612L17.5973 17.7929Z" fill="#333333"/>
<path d="M13.1719 9.38723L11.1834 7.39826C10.6528 6.8677 9.72582 6.86679 9.19439 7.39826L8.86279 7.72985L12.8404 11.7073L13.1719 11.3758C13.7224 10.8252 13.7206 9.93507 13.1719 9.38723Z" fill="#333333"/>
</g>
<defs>
<clipPath id="clip0">
<rect width="16" height="16" fill="white" transform="translate(7 7)"/>
</clipPath>
</defs>
</svg>
