<svg width="21" height="21" viewBox="0 0 21 21" fill="none" xmlns="http://www.w3.org/2000/svg">
<path d="M10.2861 0.166992C4.78613 0.166992 0.286133 4.66699 0.286133 10.167C0.286133 15.667 4.78613 20.167 10.2861 20.167C15.7861 20.167 20.2861 15.667 20.2861 10.167C20.2861 4.66699 15.7861 0.166992 10.2861 0.166992ZM13.9861 12.467C14.3861 12.867 14.3861 13.467 13.9861 13.867C13.5861 14.267 12.9861 14.267 12.5861 13.867L10.2861 11.567L7.98613 13.867C7.58613 14.267 6.98613 14.267 6.58613 13.867C6.18613 13.467 6.18613 12.867 6.58613 12.467L8.88613 10.167L6.58613 7.86699C6.18613 7.46699 6.18613 6.86699 6.58613 6.46699C6.98613 6.06699 7.58613 6.06699 7.98613 6.46699L10.2861 8.76699L12.5861 6.46699C12.9861 6.06699 13.5861 6.06699 13.9861 6.46699C14.3861 6.86699 14.3861 7.46699 13.9861 7.86699L11.6861 10.167L13.9861 12.467Z" fill="#C7C7C7"/>
</svg>
