<svg width="21" height="21" viewBox="0 0 21 21" fill="none" xmlns="http://www.w3.org/2000/svg">
<path d="M10.2861 0.898438C4.77197 0.898438 0.286133 5.38427 0.286133 10.8984C0.286133 16.4126 4.77197 20.8984 10.2861 20.8984C15.8003 20.8984 20.2861 16.4126 20.2861 10.8984C20.2861 5.38427 15.8003 0.898438 10.2861 0.898438ZM15.3545 8.77927L9.9378 14.1959C9.7753 14.3584 9.56197 14.4401 9.34863 14.4401C9.1353 14.4401 8.92197 14.3584 8.75947 14.1959L6.05113 11.4876C5.7253 11.1618 5.7253 10.6351 6.05113 10.3093C6.37697 9.98344 6.90363 9.98344 7.22947 10.3093L9.34863 12.4284L14.1761 7.60094C14.502 7.2751 15.0286 7.2751 15.3545 7.60094C15.6803 7.92677 15.6803 8.45344 15.3545 8.77927Z" fill="#118A0F"/>
</svg>
