<svg width="146" height="10" viewBox="0 0 146 10" fill="none" xmlns="http://www.w3.org/2000/svg">
<path d="M0.5 1.5H142C143.933 1.5 145.5 3.067 145.5 5C145.5 6.933 143.933 8.5 142 8.5H0.5V1.5Z" stroke="#F2F2F2"/>
<path d="M13.2207 1L10.3467 9" stroke="#F2F2F2"/>
<path d="M17.8193 1L14.9453 9" stroke="#F2F2F2"/>
<path d="M22.417 1L19.543 9" stroke="#F2F2F2"/>
<path d="M27.0156 1L24.1416 9" stroke="#F2F2F2"/>
<path d="M31.6143 1L28.7402 9" stroke="#F2F2F2"/>
<path d="M36.2129 1L33.3389 9" stroke="#F2F2F2"/>
<path d="M40.8105 1L37.9365 9" stroke="#F2F2F2"/>
<path d="M45.4092 1L42.5352 9" stroke="#F2F2F2"/>
<path d="M50.0078 1L47.1338 9" stroke="#F2F2F2"/>
<path d="M54.6064 1L51.7324 9" stroke="#F2F2F2"/>
<path d="M68.4014 1L65.5273 9" stroke="#F2F2F2"/>
<path d="M59.2051 1L56.3311 9" stroke="#F2F2F2"/>
<path d="M63.8027 1L60.9287 9" stroke="#F2F2F2"/>
<path d="M73 1L70.126 9" stroke="#F2F2F2"/>
<path d="M77.5986 1L74.7246 9" stroke="#F2F2F2"/>
<path d="M86.7949 1L83.9209 9" stroke="#F2F2F2"/>
<path d="M91.3935 1L88.5195 9" stroke="#F2F2F2"/>
<path d="M95.9922 1L93.1182 9" stroke="#F2F2F2"/>
<path d="M82.1973 1L79.3232 9" stroke="#F2F2F2"/>
<path d="M109.787 1L106.913 9" stroke="#F2F2F2"/>
<path d="M100.591 1L97.7168 9" stroke="#F2F2F2"/>
<path d="M105.189 1L102.315 9" stroke="#F2F2F2"/>
<path d="M114.386 1L111.512 9" stroke="#F2F2F2"/>
<path d="M118.984 1L116.11 9" stroke="#F2F2F2"/>
<path d="M128.181 1L125.307 9" stroke="#F2F2F2"/>
<path d="M141.977 1L139.103 9" stroke="#F2F2F2"/>
<path d="M132.779 1L129.905 9" stroke="#F2F2F2"/>
<path d="M137.378 1L134.504 9" stroke="#F2F2F2"/>
<path d="M123.583 1L120.709 9" stroke="#F2F2F2"/>
</svg>
